<svg width="auto" height="34" viewBox="0 0 449 559" fill="none" xmlns="http://www.w3.org/2000/svg"><path d="M83 -1.59984e-05C285.136 -7.16271e-06 449 163.864 449 366L449 559L6.08291e-06 559L3.05176e-05 -1.96264e-05L83 -1.59984e-05Z" fill="url(#paint0_linear_114_126)"></path><path d="M224.259 203.52C310.824 203.52 380.999 273.695 380.999 360.26H224.259V203.52Z" fill="white"></path><path d="M67.5183 360.26C67.5183 273.695 137.693 203.52 224.259 203.52L224.259 360.26L67.5183 360.26Z" fill="white"></path><path d="M380.999 517.001C294.434 517.001 224.259 446.825 224.259 360.26L380.999 360.26L380.999 517.001Z" fill="white"></path><g filter="url(#filter0_d_114_126)"><rect x="67.5183" y="203.52" width="156.74" height="156.74" fill="white"></rect></g><path d="M67.5183 360.26H224.259C224.259 446.826 154.084 517.001 67.5183 517.001V360.26Z" fill="white"></path><path d="M67.5183 125.149C67.5183 81.8666 102.606 46.7791 145.889 46.7791C189.171 46.7791 224.259 81.8666 224.259 125.149V203.52H67.5183V125.149Z" fill="white"></path><defs><filter id="filter0_d_114_126" x="47.5183" y="173.52" width="216.74" height="216.74" filterUnits="userSpaceOnUse" color-interpolation-filters="sRGB"><feFlood flood-opacity="0" result="BackgroundImageFix"></feFlood><feColorMatrix in="SourceAlpha" type="matrix" values="0 0 0 0 0 0 0 0 0 0 0 0 0 0 0 0 0 0 127 0" result="hardAlpha"></feColorMatrix><feOffset dx="10"></feOffset><feGaussianBlur stdDeviation="15"></feGaussianBlur><feComposite in2="hardAlpha" operator="out"></feComposite><feColorMatrix type="matrix" values="0 0 0 0 0.619608 0 0 0 0 0.541176 0 0 0 0 0.8 0 0 0 1 0"></feColorMatrix><feBlend mode="normal" in2="BackgroundImageFix" result="effect1_dropShadow_114_126"></feBlend><feBlend mode="normal" in="SourceGraphic" in2="effect1_dropShadow_114_126" result="shape"></feBlend></filter><linearGradient id="paint0_linear_114_126" x1="449" y1="279.5" x2="1.83002e-05" y2="279.5" gradientUnits="userSpaceOnUse"><stop stop-color="#4F46E5"></stop><stop offset="1" stop-color="#7C3AED"></stop></linearGradient></defs></svg>